<?xml version="1.0" encoding="UTF-8"?>
<svg width="512" height="512" enable-background="new 0 0 512 512" version="1.1" viewBox="0 0 512 512" xmlns="http://www.w3.org/2000/svg" xmlns:cc="http://creativecommons.org/ns#" xmlns:dc="http://purl.org/dc/elements/1.1/" xmlns:rdf="http://www.w3.org/1999/02/22-rdf-syntax-ns#">
 <metadata>
  <rdf:RDF>
   <cc:Work rdf:about="">
    <dc:format>image/svg+xml</dc:format>
    <dc:type rdf:resource="http://purl.org/dc/dcmitype/StillImage"/>
    <dc:title/>
   </cc:Work>
  </rdf:RDF>
 </metadata>
 <g>
  <path d="m290.57 408.5-99.14 30-3.19 11.15c-4.53 15.87-21.74 28.85-38.24 28.85h182z" fill="#c8cfd6"/>
  <path d="m323.76 449.65-11.76-41.15-56-30-56 30-8.57 30h99.14l3.19 11.15c4.53 15.87 21.74 28.85 38.24 28.85h30c-16.5 0-33.71-12.98-38.24-28.85z" fill="#95a3b4"/>
  <path d="m474.5 33.5h-30v375h30c16.5 0 30-13.5 30-30v-315c0-16.5-13.5-30-30-30z" fill="#9ba9b9"/>
  <path d="m444.5 33.5h-407c-16.5 0-30 13.5-30 30v315c0 16.5 13.5 30 30 30h407c16.5 0 30-13.5 30-30v-30l-218.5-142.5 218.5-142.5c0-16.5-13.5-30-30-30z" fill="#c8cfd6"/>
  <path d="m474.5 63.5-29.994-0.027c0 7e-3 -188.51 142.5-188.51 142.5s188.5 142.5 188.5 142.5l29.999-0.025c1e-3 1e-3 -2e-3 -284.94 1e-3 -284.95z" fill="#c0deff"/>
 </g>
 <path d="m444.5 63.5-406.912-.027c-.024.014-.045 284.994-.088 285 0 0 406.98-.025 406.99-.025.005.001-.032-284.942.01-284.948z" fill="#fff"/>
 <path d="m474.5 26h-437c-20.678 0-37.5 16.822-37.5 37.5v315c0 20.678 16.822 37.5 37.5 37.5h152.56l-9.027 31.594c-3.625 12.687-17.835 23.406-31.03 23.406h-49c-4.142 0-7.5 3.358-7.5 7.5s3.358 7.5 7.5 7.5h310c4.142 0 7.5-3.358 7.5-7.5s-3.358-7.5-7.5-7.5h-49c-13.195 0-27.405-10.719-31.03-23.406l-9.027-31.594h152.56c20.678 0 37.5-16.822 37.5-37.5v-315c0-20.678-16.822-37.5-37.5-37.5zm-157.95 425.72c2.058 7.204 6.149 13.824 11.512 19.285h-144.12c5.363-5.461 9.454-12.081 11.512-19.285l10.204-35.715h100.68zm180.45-73.215c0 12.407-10.093 22.5-22.5 22.5h-437c-12.407 0-22.5-10.093-22.5-22.5v-315c0-12.407 10.093-22.5 22.5-22.5h437c12.407 0 22.5 10.093 22.5 22.5z"/>
 <path d="m482 348.5v-285c0-4.142-3.358-7.5-7.5-7.5h-437c-4.142 0-7.5 3.358-7.5 7.5v127.5c0 4.142 3.358 7.5 7.5 7.5s7.5-3.358 7.5-7.5v-120h422v270h-422v-120c0-4.142-3.358-7.5-7.5-7.5s-7.5 3.358-7.5 7.5v127.5c0 4.142 3.358 7.5 7.5 7.5h437c4.142 0 7.5-3.358 7.5-7.5z"/>
 <circle cx="475.18" cy="378.47" r="7.5"/>
 <circle cx="445.18" cy="378.47" r="7.5"/>
 <path d="m100.15 280.77c0.7628-7.9875 11.704-9.5129 13.333-16.129v-55.737c-6.0824-4.0882-18.064-9.448-9.3333-17.285 7.2156-4.0735 17.1-5.9272 25.472-10.884 6.8798-4.0318 10.631-7.1869 18.494-7.0799 0.75936 7.611-0.20075 20.168 8.1917 9.5353 5.9244-9.707 19.68-11.473 29.046-6.9572 13.558 0.57702-1.4106 18.109-0.94431 25.902-0.4812 15.554-14.19 4.9494-22.87 3.2977-6.9308-1.3924-15.223 2.2221-12.696 10.036 0.10232 16.702 0.20465 33.405 0.30697 50.107 4.8326 3.9933 12.354 5.7516 15.981 9.4157 6.5904-3.3828 6.992 9.2396 1.7023 8.4011h-66.683c-1.1e-4 -0.87401-2.3e-4 -1.748-3.4e-4 -2.622zm88 1.622c-3.4873-7.9606 12.526-10.525 14.994-18.135 2.8956-10.297 0.84672-21.701 1.6194-32.423 0.0963-28.041 0.0372-56.082 0.0536-84.123-3.7328-6.1916-9.05-10.704-12.021-16.979-5.2149-7.2144-0.80108-10.179 5.9718-8.673h40.736c6.2779 10.453 11.087 22.123 17.98 31.99 3.7735 10.783 10.61 15.624 13.248 26.353 4.0388 9.129 9.769 18.814 14.802 26.324 1.6187 4.6348 4.4558 14.038 7.0852 3.2702 3.3429-8.9405 9.082-17.613 13.677-26.466 2.7626-8.6755 7.8512-15.518 12.839-24.222 4.714-9.2116 8.1426-17.995 13.668-26.529 2.7278-3.1621 2.959-10.386 7.4231-10.72h48.591c1.1827 8.3464-5.9312 10.507-9.7058 15.333-6.1035 1.3474-7.0812 6.2892-6.2942 11.511 0.1649 37.288-0.42942 74.592 0.47185 111.87 1.5302 9.284 15.379 11.908 16.195 21.404-1.4202 2.7402-7.8407 0.47998-11.263 1.2177h-62.737c-0.56662-8.6639 8.6135-12.618 14.245-17.367 4.3489-2.3943 1.7016-7.9842 2.4216-12.036-0.16643-24.863 0.47619-49.767-0.63404-74.597-5.6535 8.1373-6.8434 15.821-13.102 23.222-3.7269 10.344-8.7072 17.247-14.648 27.17-5.5149 11.323-11.337 21.765-16.949 32.771-2.1787 5.2806-6.9532 12.38-13.306 8.5825-5.6424-10.788-11.116-21.808-17.37-32.152-5.3895-12.247-11.686-24.219-18.917-35.475-3.4316-7.2643-7.991-20.181-12.638-23.917-0.70138 28.037-0.29858 56.089-0.37561 84.133 4.4475 3.9658 9.2136 8.0568 13.939 11.285 6.2841 5.5908 3.1733 10.317-3.9547 8.3817-15.278-0.24715-30.665 0.65214-45.853-0.70661l-0.19184-0.29339z" stroke-width=".66667"/>
</svg>
