<?xml version="1.0" encoding="UTF-8"?>
<svg width="532.49" height="582.51" version="1.1" viewBox="0 0 532.49 582.51" xmlns="http://www.w3.org/2000/svg" xmlns:cc="http://creativecommons.org/ns#" xmlns:dc="http://purl.org/dc/elements/1.1/" xmlns:rdf="http://www.w3.org/1999/02/22-rdf-syntax-ns#">
 <metadata>
  <rdf:RDF>
   <cc:Work rdf:about="">
    <dc:format>image/svg+xml</dc:format>
    <dc:type rdf:resource="http://purl.org/dc/dcmitype/StillImage"/>
    <dc:title/>
   </cc:Work>
  </rdf:RDF>
 </metadata>
 <g transform="matrix(-.5118 -.8591 -.8591 .5118 651.56 359.69)">
  <path d="m472 120h-85.74l29.39-29.4a24.021 24.021 0 0 0 0-33.94l-11.31-11.31a24.021 24.021 0 0 0-33.94 0l-74.66 74.65h-255.74a32.036 32.036 0 0 0-32 32v288a32.036 32.036 0 0 0 32 32h432a32.036 32.036 0 0 0 32-32v-288a32.036 32.036 0 0 0-32-32zm-191.27 37.64 100.98-100.98a8 8 0 0 1 11.31 0l11.32 11.31a8.015 8.015 0 0 1 0 11.32l-67.07 67.07-64.7 64.69-22.62-22.62 30.75-30.76zm-88.28 88.29 46.18-46.19 22.63 22.63-46.19 46.18zm11.31 33.93-5.33 5.34-34.01 13.48 11.59-36.31 5.13-5.13zm-40.44-27.43a8 8 0 0 0-1.97 3.22l-17.31 54.26a8.006 8.006 0 0 0 7.62 10.43 8.142 8.142 0 0 0 2.29-0.34h230.05a8 8 0 0 0 0-16h-189.59l11.45-4.54a7.932 7.932 0 0 0 2.71-1.78l137.69-137.68h117.74v272h-360v-272h151.74zm324.68 187.57a16.021 16.021 0 0 1-16 16h-432a16.021 16.021 0 0 1-16-16v-288a16.021 16.021 0 0 1 16-16h239.74l-8 8h-175.74a8 8 0 0 0-8 8v288a8 8 0 0 0 8 8h376a8 8 0 0 0 8-8v-288a8 8 0 0 0-8-8h-109.74l8-8h101.74a16.021 16.021 0 0 1 16 16z"/>
  <path d="m56 272a24 24 0 1 0 24 24 24.027 24.027 0 0 0-24-24zm0 32a8 8 0 1 1 8-8 8.009 8.009 0 0 1-8 8z"/>
  <path d="m48 256h16a8 8 0 0 0 0-16h-16a8 8 0 0 0 0 16z"/>
  <path d="m48 224h16a8 8 0 0 0 0-16h-16a8 8 0 0 0 0 16z"/>
  <path d="m48 192h16a8 8 0 0 0 0-16h-16a8 8 0 0 0 0 16z"/>
  <path d="m64 400h-16a8 8 0 0 0 0 16h16a8 8 0 0 0 0-16z"/>
  <path d="m64 368h-16a8 8 0 0 0 0 16h16a8 8 0 0 0 0-16z"/>
  <path d="m64 336h-16a8 8 0 0 0 0 16h16a8 8 0 0 0 0-16z"/>
  <path d="m144 168h-24a8 8 0 0 0-8 8v24a8 8 0 0 0 16 0v-16h16a8 8 0 0 0 0-16z"/>
  <path d="m128 392a8 8 0 0 0-16 0v24a8 8 0 0 0 8 8h24a8 8 0 0 0 0-16h-16z"/>
  <path d="m448 384a8 8 0 0 0-8 8v16h-16a8 8 0 0 0 0 16h24a8 8 0 0 0 8-8v-24a8 8 0 0 0-8-8z"/>
  <path d="m424 184h16v16a8 8 0 0 0 16 0v-24a8 8 0 0 0-8-8h-24a8 8 0 0 0 0 16z"/>
  <path d="m408 320h8a8 8 0 0 0 0-16h-8a8 8 0 0 0 0 16z"/>
 </g>
</svg>
